<region> lovel=1 hivel=3 amp_velcurve_3=1 sample=../samples/kicks/kd14bop/snare_on/cls/kd14wbop_cls_004x.wav
<region> lovel=4 hivel=6 amp_velcurve_6=1 sample=../samples/kicks/kd14bop/snare_on/cls/kd14wbop_cls_011x.wav
<region> lovel=7 hivel=9 amp_velcurve_9=1 sample=../samples/kicks/kd14bop/snare_on/cls/kd14wbop_cls_015x.wav
<region> lovel=10 hivel=12 amp_velcurve_12=1 sample=../samples/kicks/kd14bop/snare_on/cls/kd14wbop_cls_016x.wav
<region> lovel=13 hivel=15 amp_velcurve_15=1 sample=../samples/kicks/kd14bop/snare_on/cls/kd14wbop_cls_017x.wav
<region> lovel=16 hivel=18 amp_velcurve_18=1 sample=../samples/kicks/kd14bop/snare_on/cls/kd14wbop_cls_018x.wav
<region> lovel=19 hivel=21 amp_velcurve_21=1 sample=../samples/kicks/kd14bop/snare_on/cls/kd14wbop_cls_019x.wav
<region> lovel=22 hivel=24 amp_velcurve_24=1 sample=../samples/kicks/kd14bop/snare_on/cls/kd14wbop_cls_020x.wav
<region> lovel=25 hivel=27 amp_velcurve_27=1 sample=../samples/kicks/kd14bop/snare_on/cls/kd14wbop_cls_021x.wav
<region> lovel=28 hivel=30 amp_velcurve_30=1 sample=../samples/kicks/kd14bop/snare_on/cls/kd14wbop_cls_022x.wav
<region> lovel=31 hivel=33 amp_velcurve_33=1 sample=../samples/kicks/kd14bop/snare_on/cls/kd14wbop_cls_023x.wav
<region> lovel=34 hivel=36 amp_velcurve_36=1 sample=../samples/kicks/kd14bop/snare_on/cls/kd14wbop_cls_024x.wav
<region> lovel=37 hivel=39 amp_velcurve_39=1 sample=../samples/kicks/kd14bop/snare_on/cls/kd14wbop_cls_025x.wav
<region> lovel=40 hivel=42 amp_velcurve_42=1 sample=../samples/kicks/kd14bop/snare_on/cls/kd14wbop_cls_026x.wav
<region> lovel=43 hivel=45 amp_velcurve_45=1 sample=../samples/kicks/kd14bop/snare_on/cls/kd14wbop_cls_027x.wav
<region> lovel=46 hivel=48 amp_velcurve_48=1 sample=../samples/kicks/kd14bop/snare_on/cls/kd14wbop_cls_028x.wav
<region> lovel=49 hivel=51 amp_velcurve_51=1 sample=../samples/kicks/kd14bop/snare_on/cls/kd14wbop_cls_029x.wav
<region> lovel=52 hivel=54 amp_velcurve_54=1 sample=../samples/kicks/kd14bop/snare_on/cls/kd14wbop_cls_030x.wav
<region> lovel=55 hivel=57 amp_velcurve_57=1 sample=../samples/kicks/kd14bop/snare_on/cls/kd14wbop_cls_033x.wav
<region> lovel=58 hivel=60 amp_velcurve_60=1 sample=../samples/kicks/kd14bop/snare_on/cls/kd14wbop_cls_036x.wav
<region> lovel=61 hivel=63 amp_velcurve_63=1 sample=../samples/kicks/kd14bop/snare_on/cls/kd14wbop_cls_037x.wav
<region> lovel=64 hivel=67 amp_velcurve_67=1 sample=../samples/kicks/kd14bop/snare_on/cls/kd14wbop_cls_039x.wav
<region> lovel=68 hivel=71 amp_velcurve_71=1 sample=../samples/kicks/kd14bop/snare_on/cls/kd14wbop_cls_041x.wav
<region> lovel=72 hivel=75 amp_velcurve_75=1 sample=../samples/kicks/kd14bop/snare_on/cls/kd14wbop_cls_053x.wav
<region> lovel=76 hivel=79 amp_velcurve_79=1 sample=../samples/kicks/kd14bop/snare_on/cls/kd14wbop_cls_055x.wav
<region> lovel=80 hivel=83 amp_velcurve_83=1 sample=../samples/kicks/kd14bop/snare_on/cls/kd14wbop_cls_061x.wav
<region> lovel=84 hivel=87 amp_velcurve_87=1 sample=../samples/kicks/kd14bop/snare_on/cls/kd14wbop_cls_062x.wav
<region> lovel=88 hivel=91 amp_velcurve_91=1 sample=../samples/kicks/kd14bop/snare_on/cls/kd14wbop_cls_065x.wav
<region> lovel=92 hivel=95 amp_velcurve_95=1 sample=../samples/kicks/kd14bop/snare_on/cls/kd14wbop_cls_066x.wav
<region> lovel=96 hivel=99 amp_velcurve_99=1 sample=../samples/kicks/kd14bop/snare_on/cls/kd14wbop_cls_069x.wav
<region> lovel=100 hivel=103 amp_velcurve_103=1 sample=../samples/kicks/kd14bop/snare_on/cls/kd14wbop_cls_070x.wav
<region> lovel=104 hivel=107 amp_velcurve_107=1 sample=../samples/kicks/kd14bop/snare_on/cls/kd14wbop_cls_071x.wav
<region> lovel=108 hivel=111 amp_velcurve_111=1 sample=../samples/kicks/kd14bop/snare_on/cls/kd14wbop_cls_072x.wav
<region> lovel=112 hivel=115 amp_velcurve_115=1 sample=../samples/kicks/kd14bop/snare_on/cls/kd14wbop_cls_073x.wav
<region> lovel=116 hivel=119 amp_velcurve_119=1 sample=../samples/kicks/kd14bop/snare_on/cls/kd14wbop_cls_075x.wav
<region> lovel=120 hivel=123 amp_velcurve_123=1 sample=../samples/kicks/kd14bop/snare_on/cls/kd14wbop_cls_078x.wav
<region> lovel=124 hivel=127 amp_velcurve_127=1 sample=../samples/kicks/kd14bop/snare_on/cls/kd14wbop_cls_079x.wav
